<svg enable-background="new 0 0 512 512" viewBox="0 0 512 512" xmlns="http://www.w3.org/2000/svg"><g fill="#333"><path clip-rule="evenodd" d="m204.43 85.05c0-15.74 12.76-28.51 28.51-28.51h45.61c15.74 0 28.51 12.76 28.51 28.51v28.51h-102.63zm-34.21 17.95-12.04 1.5c-25.69 3.2-44.97 25.03-44.97 50.92v239.21c0 24.63 18.35 45.41 42.79 48.45 66.24 8.25 133.24 8.25 199.47 0 24.44-3.04 42.79-23.82 42.79-48.45v-239.22c0-25.89-19.28-47.72-44.97-50.92l-12.04-1.5v27.66c0 9.45-7.66 17.1-17.1 17.1h-136.82c-9.45 0-17.1-7.66-17.1-17.1v-27.65zm168.76-34.76 18.55 2.31c42.81 5.33 74.95 41.72 74.95 84.86v239.21c0 41.89-31.2 77.22-72.77 82.4-69.04 8.6-138.89 8.6-207.93 0-41.57-5.18-72.78-40.51-72.78-82.4v-239.21c0-43.14 32.14-79.53 74.95-84.86l18.55-2.31c7.35-26.47 31.62-45.9 60.44-45.9h45.61c28.81 0 53.08 19.43 60.43 45.9z" fill-rule="evenodd"/><path d="m341.26 238.98c0-9.45-7.66-17.1-17.1-17.1h-136.83c-9.45 0-17.1 7.66-17.1 17.1 0 9.45 7.66 17.1 17.1 17.1h136.83c9.44 0 17.1-7.65 17.1-17.1z"/><path d="m318.45 307.39c0-9.45-7.66-17.1-17.1-17.1h-114.02c-9.45 0-17.1 7.66-17.1 17.1 0 9.45 7.66 17.1 17.1 17.1h114.02c9.45.01 17.1-7.65 17.1-17.1z"/></g></svg>