<svg enable-background="new 0 0 512 512" viewBox="0 0 512 512" xmlns="http://www.w3.org/2000/svg"><path d="m378.09 83.81 2.5-7.27c2.19-5.48 1.93-11.63-.7-16.91-2.55-5.11-7.16-8.89-11.56-10.03-2.35-.93-4.83-1.41-7.39-1.41-9.11 0-17.28 5.97-19.57 13.73l-2.92 7.43c-10.52-2.21-21.24-3.32-31.98-3.32-64.56 0-122.92 40.18-145.24 100.04l-34.67 94.98-62.75 28.75c-7.79 3.41-12.63 11.11-12.33 19.61.31 8.65 5.86 16.13 14.02 19.02l112.63 41.18c-1.64 30.45 16.86 58.8 46.36 69.41 7.69 2.77 15.75 4.18 23.95 4.18 22.4 0 43.45-10.42 56.73-27.67l113.48 40.6c2.46.98 5.05 1.48 7.69 1.48 8.87 0 16.88-5.65 20-14.28 2-5.98 1.28-12.3-1.54-16.91l-28.79-61.23 34.66-94.92c26.53-71.09-5.28-151.18-72.58-186.46zm-141.86 325.21c-16.67-6.11-26.67-21.67-25.56-38.34l70.02 25.01c-10.01 13.33-28.35 18.89-44.46 13.33zm175.07-152.95-37.69 102.55c-2.36 5.93-1.92 11.88.79 16.32l11.45 24.36-82.31-29.18-176-63.43 24.05-11.17c5.1-2.04 8.85-5.97 11.25-11.98l37.79-102.81c15.92-43.48 58.35-72.69 105.59-72.69 12.87 0 25.59 2.18 37.73 6.44 28.31 10.18 50.89 30.72 63.57 57.84 12.46 26.65 13.8 56.39 3.78 83.75z" fill="#333"/></svg>