<svg enable-background="new 0 0 512 512" viewBox="0 0 512 512" xmlns="http://www.w3.org/2000/svg"><g fill="#f00"><path d="m439.28 94.57h-97.75v-48.02c0-8.38-6.68-10.14-12.28-10.14h-146.34c-5.6 0-12.27 1.77-12.27 10.14v48.02h-98.44c-9.05 0-16.41 6.72-16.41 14.97 0 8.27 7.36 14.99 16.41 14.99h367.09c9.05 0 16.41-6.72 16.41-14.99 0-8.25-7.37-14.97-16.42-14.97zm-125.24 0h-115.89v-33.06h115.89z"/><path d="m299.1 394.52c-3.37 0-6.62-1.29-9.13-3.64-2.75-2.56-4.27-6.07-4.19-9.63l5.4-209.45c.18-6.85 6.29-12.19 13.92-12.19 3.81.06 7.22 1.46 9.77 3.92 2.55 2.45 3.91 5.66 3.82 9.02l-5.4 209.26c-.18 6.89-6.48 12.7-13.76 12.7h-.43z"/><path d="m211.95 394.52c-7.15 0-13.57-6.16-13.75-13.2l-5.42-209.97c-.17-6.85 5.85-12.55 13.43-12.7h.01c7.73 0 13.9 5.6 14.08 12.49l5.4 209.54c.09 3.68-1.59 7.52-4.5 10.23-2.5 2.35-5.63 3.62-8.83 3.62h-.42z"/><path d="m401.65 146.3c-7.89 0-14.82 8.41-15.45 18.67l-11.6 187.75c-3.69 56.04-34.29 90.42-78.12 90.42h-81.5c-43.83 0-74.43-34.42-78.12-90.42l-11.6-187.75c-.63-10.25-7.57-18.67-15.45-18.67-7.85 0-13.56 8.35-12.75 18.56l14.85 187.88c1.61 32.5 13.66 63.06 33.23 85.65 19.42 20.79 44.84 31.87 70.47 30.95h80.27c25.63.92 51.06-10.17 70.47-30.97 19.57-22.59 31.61-53.16 33.23-85.66l14.85-187.86c.81-10.21-4.9-18.56-12.75-18.56h-.03z"/></g></svg>