<svg enable-background="new 0 0 512 512" viewBox="0 0 512 512" xmlns="http://www.w3.org/2000/svg"><g fill="#333"><path d="m382.48 367.16c2.35-20.07 4.01-40.21 4.97-60.36.1-2.18 1.09-4.23 2.73-5.67 7.23-6.39 14.24-13.02 21.01-19.89 2.55-2.59 7-.78 6.92 2.85-.62 28.9-2.61 57.79-5.98 86.55-4.71 40.26-37.05 71.82-77.1 76.3-69.01 7.71-140.34 7.71-209.35 0-40.05-4.48-72.39-36.03-77.1-76.3-8.25-70.56-8.25-141.84 0-212.39 4.71-40.26 37.05-71.82 77.1-76.29 45.61-5.1 92.23-6.82 138.53-5.19 3.9.14 6.58 3.95 6.09 7.82-.1.81-.18 1.62-.24 2.45l-1.02 14.01c-.23 3.22-2.98 5.66-6.2 5.55-44.73-1.57-89.79.11-133.84 5.03-26.48 2.96-47.69 23.86-50.76 50.09-7.98 68.25-7.98 137.2 0 205.46 3.07 26.23 24.28 47.13 50.76 50.09 66.81 7.47 135.92 7.47 202.72 0 26.48-2.99 47.69-23.88 50.76-50.11z"/><path d="m192.31 352.9c-6 0-11.89-2.36-16.38-6.85-6.93-6.93-8.79-17.17-4.73-26.1l31.8-69.97c1.12-2.53 2.77-4.89 4.82-6.92l183.36-183.35c8.74-8.8 24.08-8.83 32.93-.04l38.17 38.19c9.07 9.06 9.07 23.83.02 32.91l-183.48 183.48c-2.08 2.05-4.35 3.61-6.85 4.74l-69.94 31.79c-3.15 1.42-6.45 2.12-9.72 2.12zm40.65-87.19-19.42 42.73 42.74-19.42 174.69-174.7-23.31-23.32zm25.05 22.52s-.02.01-.03.01zm-26.29-21.28-.1.1zm2.08-3.08-.07.12c.04-.04.05-.08.07-.12zm181.3-180.3-.02.02c.01-.01.02-.01.02-.02z"/></g></svg>