<svg enable-background="new 0 0 512 512" viewBox="0 0 512 512" xmlns="http://www.w3.org/2000/svg"><path d="m255.82 438.14c-8.04 0-15.85-3.3-21.47-9.05l-139.22-143.47c-48.61-51.36-48.66-131.56-.25-182.74 23.62-22.74 53.88-34.96 85.73-34.96l1.88.02c26.83.52 52.33 9.7 73.05 26.05 21.21-17.05 47.66-26.32 75.63-26.32 28.51 0 56.24 10.02 78.1 28.22 2.42 2.04 4.52 3.94 6.52 5.85 49.18 51.92 49.36 132.25.92 183.4l-139.37 143.9c-5.6 5.77-13.43 9.1-21.52 9.1zm-75.36-337.82c-23.29 0-45.58 9.01-62.58 25.37-36.07 38.14-36.02 98.79.65 137.51l137.3 141.48 137.47-141.95c36.5-38.54 36.32-99.29-.52-138.19-.96-.92-2.56-2.34-4.32-3.83-15.96-13.29-36.34-20.64-57.28-20.64-23.29 0-45.09 8.71-61.38 24.52l-13.97 13.58-14.17-13.41c-16.17-15.32-37.33-23.99-59.62-24.43z" fill="#333"/></svg>