<svg id="Vector-113" xmlns="http://www.w3.org/2000/svg" width="24" height="24" viewBox="0 0 24 24">
  <g id="Vector-20-6" transform="translate(3.652 0)">
    <path id="Path_11" data-name="Path 11" d="M677.127,730.5a3.9,3.9,0,1,1,3.245-1.74h0a3.9,3.9,0,0,1-3.245,1.74Zm0-5.534a1.634,1.634,0,1,0,.9.272A1.636,1.636,0,0,0,677.13,724.965Zm2.3,3.167h0Z" transform="translate(-673.227 -722.705)"/>
  </g>
  <g id="Vector-21-6" transform="translate(3.655 16.203)">
    <path id="Path_12" data-name="Path 12" d="M677.134,789.905a3.9,3.9,0,1,1,3.247-1.74v0a3.905,3.905,0,0,1-3.246,1.738Zm0-5.533a1.634,1.634,0,1,0,.9.273A1.639,1.639,0,0,0,677.138,784.372Zm2.3,3.167h0Z" transform="translate(-673.239 -782.108)"/>
  </g>
  <g id="Vector-22-6" transform="translate(12.553 8.102)">
    <path id="Path_13" data-name="Path 13" d="M709.816,760.2a3.906,3.906,0,0,1-3.246-1.738h0a3.9,3.9,0,1,1,3.247,1.738Zm-1.363-2.993a1.635,1.635,0,1,0,.456-2.266,1.623,1.623,0,0,0-.456,2.266Z" transform="translate(-705.918 -752.408)"/>
  </g>
  <g id="Vector-23-path" transform="translate(9.67 2.752)">
    <path id="Path_14" data-name="Path 14" d="M707.575,735.477H695.507a1.131,1.131,0,0,1,0-2.263h12.068a1.131,1.131,0,0,1,0,2.263Z" transform="translate(-694.376 -733.214)"/>
  </g>
  <g id="Vector-23-path-2" transform="translate(0 2.752)">
    <path id="Path_15" data-name="Path 15" d="M664.458,735.477h-3.51a1.131,1.131,0,0,1,0-2.263h3.51a1.131,1.131,0,1,1,0,2.263Z" transform="translate(-659.816 -733.214)"/>
  </g>
  <g id="Vector-23-path-3" transform="translate(9.67 18.959)">
    <path id="Path_16" data-name="Path 16" d="M707.575,794.895H695.507a1.131,1.131,0,1,1,0-2.263h12.068a1.131,1.131,0,1,1,0,2.263Z" transform="translate(-694.376 -792.632)"/>
  </g>
  <g id="Vector-23-path-4" transform="translate(0 18.959)">
    <path id="Path_17" data-name="Path 17" d="M664.458,794.895h-3.51a1.131,1.131,0,1,1,0-2.263h3.51a1.131,1.131,0,1,1,0,2.263Z" transform="translate(-659.816 -792.632)"/>
  </g>
  <g id="Vector-23-path-5" transform="translate(0 10.854)">
    <path id="Path_18" data-name="Path 18" d="M673.015,765.183H660.947a1.131,1.131,0,0,1,0-2.263h12.068a1.131,1.131,0,0,1,0,2.263Z" transform="translate(-659.816 -762.92)"/>
  </g>
  <g id="Vector-23-path-6" transform="translate(18.228 10.854)">
    <path id="Path_19" data-name="Path 19" d="M731.7,765.183h-3.51a1.131,1.131,0,0,1,0-2.263h3.51a1.131,1.131,0,0,1,0,2.263Z" transform="translate(-727.055 -762.92)"/>
  </g>
</svg>
