<svg fill="none" height="800" viewBox="0 0 24 24" width="800" xmlns="http://www.w3.org/2000/svg"><path d="m12 16.0001v-3m0 0v-3m0 3h-3m3 0h3m-11 3.8001v-5.348c0-.5343 0-.8016.06497-1.0503.05758-.2203.15233-.42883.28024-.61726.14434-.21263.34543-.38895.74756-.74081l4.80159-4.20139c.74544-.6523 1.11824-.97847 1.53804-1.10262.3702-.10947.7648-.10947 1.135 0 .4201.12424.7934.45072 1.54 1.10401l4.8 4.2c.4022.35186.6028.52818.7472.74081.1279.18843.2229.39696.2805.61726.0649.2486.0649.5165.0649 1.0503v5.3515c0 1.1179 0 1.6774-.2178 2.1049-.1917.3763-.498.682-.8743.8737-.4274.2178-.9864.2178-2.1043.2178h-9.60669c-1.11792 0-1.67771 0-2.10511-.2178-.37633-.1917-.68207-.4974-.87381-.8737-.21799-.4279-.21799-.9883-.21799-2.1084z" stroke="#000" stroke-linecap="round" stroke-linejoin="round" stroke-width="2"/></svg>