<?xml version="1.0" standalone="no"?>
<!DOCTYPE svg PUBLIC "-//W3C//DTD SVG 20010904//EN"
 "http://www.w3.org/TR/2001/REC-SVG-20010904/DTD/svg10.dtd">
<svg version="1.0" xmlns="http://www.w3.org/2000/svg"
 width="512.000000pt" height="512.000000pt" viewBox="0 0 512.000000 512.000000"
 preserveAspectRatio="xMidYMid meet">

<g transform="translate(0.000000,512.000000) scale(0.100000,-0.100000)"
fill="#000000" stroke="none">
<path d="M955 4806 c-41 -18 -83 -69 -90 -109 -3 -18 -5 -334 -3 -704 3 -660
3 -672 24 -699 51 -69 51 -69 322 -72 157 -2 260 1 284 7 45 14 95 69 104 117
l7 36 81 -4 c120 -6 156 -27 311 -183 199 -201 273 -241 549 -299 93 -19 185
-44 205 -54 20 -10 135 -79 256 -152 121 -73 240 -139 264 -147 72 -22 145
-15 233 22 16 6 18 -1 18 -82 l0 -88 -52 -13 c-346 -80 -527 -472 -366 -793
43 -86 135 -188 201 -224 34 -18 37 -23 37 -63 0 -45 19 -92 51 -128 19 -20
19 -21 -11 -58 -36 -46 -43 -81 -39 -189 4 -81 7 -89 53 -152 7 -9 1 -23 -17
-44 -34 -41 -39 -73 -35 -224 3 -108 6 -129 24 -153 43 -59 68 -69 172 -72
121 -4 145 7 224 103 104 127 98 92 98 556 l0 404 37 20 c56 30 155 135 189
201 55 104 69 159 69 274 0 115 -14 170 -69 274 -64 123 -212 235 -353 268
l-53 13 0 103 0 102 52 -41 c145 -114 250 -124 320 -28 19 26 238 1008 238
1069 0 19 -8 50 -17 67 -10 17 -166 185 -348 372 -228 235 -341 345 -366 355
-20 8 -246 76 -501 150 l-465 136 -496 0 -496 0 -6 23 c-12 38 -56 89 -91 103
-47 20 -505 19 -549 0z m485 -786 l0 -640 -210 0 -210 0 0 640 0 640 210 0
210 0 0 -640z m1592 365 l463 -135 243 -247 c133 -137 276 -285 318 -330 l76
-82 -103 -473 c-56 -260 -106 -477 -109 -481 -11 -12 -80 34 -119 78 -83 95
-91 165 -52 437 20 142 27 218 21 243 -9 42 -53 97 -167 211 -224 224 -414
307 -561 244 -128 -55 -197 -208 -157 -346 25 -87 60 -139 155 -235 94 -96
167 -152 313 -242 119 -72 149 -111 149 -188 0 -58 -18 -90 -73 -127 -65 -45
-95 -34 -376 136 -266 160 -280 166 -486 207 -230 46 -289 79 -474 268 -167
170 -260 217 -428 217 l-65 0 0 490 0 490 485 0 484 0 463 -135z m213 -703
c78 -37 195 -132 293 -238 l78 -84 -19 -143 c-11 -78 -21 -144 -23 -146 -2 -3
-17 7 -32 21 -15 13 -63 46 -107 73 -239 145 -405 316 -405 417 0 66 58 128
119 128 20 0 63 -13 96 -28z m275 -1602 c0 -147 1 -152 25 -175 15 -16 36 -25
55 -25 19 0 40 9 55 25 24 23 25 28 25 175 0 120 3 150 14 150 7 0 45 -16 83
-35 86 -43 144 -103 186 -193 29 -61 32 -76 32 -162 0 -86 -3 -101 -32 -162
-41 -88 -98 -148 -182 -192 -38 -20 -72 -43 -75 -52 -3 -9 -6 -208 -6 -442
l-1 -427 -50 -62 c-49 -62 -50 -63 -99 -63 l-50 0 0 96 c0 88 2 99 25 126 53
63 53 155 0 212 -21 22 -25 37 -25 85 0 41 5 62 16 72 8 7 25 31 36 53 29 57
21 124 -22 177 -29 37 -32 45 -27 92 6 72 -6 92 -85 133 -83 44 -140 104 -181
192 -29 61 -32 76 -32 162 0 86 3 101 32 162 42 90 100 150 186 193 38 19 76
35 83 35 11 0 14 -30 14 -150z"/>
<path d="M1165 3655 c-22 -22 -25 -32 -25 -105 0 -73 3 -83 25 -105 15 -16 36
-25 55 -25 19 0 40 9 55 25 22 22 25 32 25 105 0 73 -3 83 -25 105 -15 16 -36
25 -55 25 -19 0 -40 -9 -55 -25z"/>
<path d="M2856 2264 c-245 -59 -426 -287 -426 -536 0 -37 5 -90 11 -118 10
-49 10 -53 -14 -78 -36 -39 -57 -86 -57 -127 0 -33 -2 -35 -32 -35 -51 -1
-108 -33 -170 -96 -60 -62 -78 -96 -78 -145 0 -25 -4 -29 -29 -29 -16 0 -42
-5 -58 -11 -33 -12 -198 -172 -220 -213 -19 -36 -19 -105 0 -142 24 -47 130
-141 170 -152 37 -10 218 6 264 24 12 5 154 137 315 294 l293 286 55 -13 c109
-27 310 6 368 60 28 26 30 87 5 109 -32 28 -61 30 -118 9 -110 -41 -216 -37
-332 15 l-53 23 -19 -42 c-13 -29 -106 -129 -297 -319 l-279 -278 -85 -6 -86
-7 -27 32 c-15 18 -27 36 -27 40 0 3 28 34 63 68 52 51 69 62 107 67 86 12
137 60 147 138 7 58 72 128 118 128 54 0 117 40 143 90 12 24 22 58 22 75 0
43 22 69 75 90 35 13 45 21 41 34 -3 9 -17 50 -32 91 -63 178 4 367 164 469
55 34 139 61 194 61 94 0 141 78 83 135 -20 21 -33 25 -82 24 -32 0 -85 -7
-117 -15z"/>
</g>
</svg>
