<svg height="512pt" preserveAspectRatio="xMidYMid meet" viewBox="0 0 512 512" width="512pt" xmlns="http://www.w3.org/2000/svg"><g transform="matrix(.1 0 0 -.1 0 512)"><path d="m1966 5104c-189-46-346-205-391-396-12-52-15-177-15-725v-663h-542c-443 0-554-3-606-15-193-46-351-203-397-396-22-95-22-1762 0-1857 43-183 197-345 373-391l42-12v-284c0-306 3-326 51-351 38-19 68-18 104 5 17 11 188 154 380 320l350 300 885 1c982 0 952-1 1081 66 83 44 176 139 219 224 59 118 60 122 60 848v662h123l122-1 350-300c193-165 364-309 380-320 36-23 66-24 104-5 48 25 51 45 51 351v284l42 12c177 47 330 207 373 390 22 95 22 1762 0 1857-46 193-203 351-396 397-84 19-922 22-964 3-29-13-55-55-55-88 0-29 26-76 47-86 10-5 225-11 478-14l460-5 56-28c66-32 132-99 162-165l22-47v-895-895l-22-47c-48-104-152-181-263-193-72-8-108-23-123-49-8-14-14-97-17-248l-5-226-298 254c-164 140-308 256-320 259s-436 6-942 8l-920 2-58 29c-68 35-130 98-160 164l-22 47v895 895l28 57c31 64 95 125 165 160 46 23 52 23 507 28 253 3 468 9 478 14 21 10 47 57 47 86 0 33-26 75-55 88-40 19-890 15-969-4zm-406-2086c0-153 34-269 107-366 19-25 22-36 14-46-16-19-451-1164-451-1186 0-33 23-71 51-86 35-18 63-18 98 1 29 15 44 44 97 188l29 77h275 275l48-125c40-104 53-128 77-140 36-19 63-19 99-1 28 15 51 53 51 85 0 10-86 247-191 525-105 279-189 509-187 511s21 0 43-5 335-10 703-10h663l-3-677c-3-671-3-679-25-725-30-66-96-133-162-165l-56-28-920-2c-506-2-930-5-942-8s-156-120-320-260l-298-255-5 228c-3 151-9 234-17 248-15 27-52 41-125 49-107 12-206 84-256 185l-27 55-3 874c-3 961-4 933 58 1019 38 53 112 108 170 126 37 12 146 15 588 15l542 1zm319-1216c-55-1-143-1-197 0l-98 3 93 245c51 135 96 252 99 260s50-102 104-245l98-260z"/><path d="m3291 5106c-87-48-50-186 49-186 51 0 100 49 100 99 0 75-83 124-149 87z"/><path d="m3269 4571-29-29v-151-151h-306-306l-30-30c-27-27-30-36-25-71 11-85 50-99 268-99h156l6-83c13-166 88-382 176-511l31-45-55-45c-121-98-257-162-408-192-108-21-137-45-137-109 0-33 6-48 28-70 26-26 30-27 102-22 167 12 419 126 562 255l38 34 38-34c143-129 395-243 562-255 72-5 76-4 103 22 21 22 27 37 27 70 0 64-29 88-137 109-151 30-287 94-408 192l-55 45 31 45c88 129 163 345 176 511l6 83h156c224 0 266 17 266 107 0 37-5 49-28 69l-28 24h-304-304l-3 156-3 156-28 24c-41 35-99 33-138-5zm207-605c-4-40-16-107-27-147-20-75-97-249-109-249-9 0-85 164-104 225-18 57-36 165-36 213v32h141 142z"/></g></svg>