<svg fill="none" height="30" viewBox="0 0 37 30" width="37" xmlns="http://www.w3.org/2000/svg"><g fill="#fff"><path d="m33.8 29.2999h-31.50002c-1.2-.1-1.999991-1.1999-1.799991-2.3999.1-1 .899991-1.7001 1.799991-1.8001h31.50002c.8-.1 1.6.3 2 1s.4 1.6001 0 2.3001c-.4.6-1.2.9999-2 .8999z"/><path d="m33.8 17.0999h-31.50002c-1.2-.1-1.999991-1.1999-1.799991-2.3999.1-1 .899991-1.7 1.799991-1.8h31.50002c.8-.1 1.6.3 2 1s.4 1.6 0 2.3c-.4.6-1.2.8999-2 .8999z"/><path d="m33.8 4.79994h-31.50002c-1.2-.1-1.999991-1.19997-1.799991-2.39997.1-1 .899991-1.700047 1.799991-1.800047h31.50002c.8-.1 1.6.3 2 .999997.4.7.4 1.60005 0 2.30005-.4.6-1.2.99997-2 .89997z"/></g></svg>