<svg height="512pt" preserveAspectRatio="xMidYMid meet" viewBox="0 0 512 512" width="512pt" xmlns="http://www.w3.org/2000/svg"><g transform="matrix(.1 0 0 -.1 0 512)"><path d="m2155 5113c-776-68-1454-518-1814-1205-340-647-340-1429 0-2076 268-512 718-900 1259-1087l135-46 1-97c0-63 6-118 18-157 65-219 240-386 451-430 104-22 2256-22 2359 0 298 63 507 361 465 664-6 41-19 97-30 126-10 28-156 288-323 579l-305 527 44 107c113 278 165 544 165 853 0 200-20 366-65 544-189 749-743 1346-1475 1589-278 93-609 133-885 109zm25-1208v-885h-370-370v58c0 72 25 308 46 432 80 480 266 911 489 1133 40 40 101 89 136 110 35 20 65 37 66 37 2 0 3-398 3-885zm396 835c80-52 195-174 266-281 208-311 349-803 384-1336l7-103h-377-376v880c0 1004-11 910 96 840zm-972-72c-4-7-19-31-34-53-129-192-250-487-325-790-54-220-105-580-105-747v-58h-375c-350 0-375 1-375 18 0 94 62 366 117 512 179 481 566 894 1028 1098 81 36 78 36 69 20zm1616-64c330-168 608-431 797-751 136-232 217-478 258-785l6-48h-373-374l-12 163c-44 593-193 1082-450 1475-14 22-14 22 13 12 15-6 76-35 135-66zm-2080-1944c0-73 25-319 46-450 69-434 225-862 411-1128 16-22 16-22-13-12-56 21-229 112-299 157-411 265-710 676-834 1144-25 94-61 294-61 338 0 8 105 11 375 11h375zm1040-532v-593l-117-202-117-203-24 23c-39 36-140 194-197 307-153 305-258 734-282 1148l-6 112h371 372zm680 588c0-7-361-630-371-640-5-6-9 123-9 317v327h190c105 0 190-2 190-4zm657-29c28-15 68-46 88-69 36-42 1052-1790 1102-1895 19-41 24-69 24-124 0-91-31-160-101-222-92-82-11-78-1265-75l-1110 3-46 23c-149 73-214 248-147 392 33 72 1064 1857 1092 1891 31 38 92 80 139 95 63 21 162 12 224-19zm758-14c-24-181-72-394-93-415-6-6-258 417-270 452-2 6 69 10 183 10h186z"/><path d="m3230 1680v-480h150 150v480 480h-150-150z"/><path d="m3230 750v-150h150 150v150 150h-150-150z"/></g></svg>