<svg height="800" viewBox="0 0 512 512" width="800" xmlns="http://www.w3.org/2000/svg"><path d="m211.772 239.087c3.797-2.022 7.023-4.548 9.651-7.578 4.702-5.376 7.074-11.776 7.074-18.987 0-4.872-1.126-9.327-3.302-13.184-2.15-3.789-5.103-6.946-8.798-9.438-3.448-2.321-7.501-4.096-11.998-5.265-4.275-1.109-9.003-1.673-13.978-1.673h-27.725v94.865h24.149v-32.587l26.402 32.589h30.575zm-8.397-22.187c-.725 1.229-1.749 2.21-3.149 3.063-1.553.947-3.499 1.698-5.803 2.21-2.372.512-4.898.785-7.578.836v-18.133h3.447c2.202 0 4.378.222 6.4.648 1.775.384 3.354.973 4.651 1.749.947.546 1.698 1.289 2.253 2.202.503.828.751 1.937.751 3.302.001 1.717-.324 3.048-.972 4.123z"/><path d="m270.899 255.787v-15.301h32.896v-22.033h-32.896v-13.448h34.372v-22.042h-58.53v94.865h58.906v-22.041z"/><path d="m370.466 182.963v50.842l-36.249-50.842h-20.549v94.865h23.655v-50.841l36.249 50.841h20.549v-94.865z"/><path d="m401.041 182.963v22.042h24.158v72.823h24.149v-72.823h24.15v-22.042z"/><path d="m512 64v-25.6h-448v-38.4h-25.6v38.4h-38.4v25.6h38.4v422.4h-25.6c-7.074 0-12.8 5.726-12.8 12.8s5.726 12.8 12.8 12.8h76.8c7.074 0 12.8-5.726 12.8-12.8s-5.726-12.8-12.8-12.8h-25.6v-422.4h89.591v38.4h-25.591c-14.14 0-25.6 11.46-25.6 25.6v204.8c0 14.14 11.46 25.6 25.6 25.6h358.4c14.14 0 25.6-11.46 25.6-25.6v-204.8c0-14.14-11.46-25.6-25.6-25.6h-25.6v-38.4zm-332.809 0h256.009v38.4h-256.009zm307.209 64v204.8h-358.4v-204.8z"/></svg>