<svg xmlns="http://www.w3.org/2000/svg" width="17" height="17.001" viewBox="0 0 17 17.001">
  <g id="Vector-339" transform="translate(0 0)">
    <g id="vector-3-23">
      <path id="Path_34" data-name="Path 34" d="M826.957,415.805a7.629,7.629,0,0,1-7.63-7.629h0a7.629,7.629,0,0,1,7.628-7.63h0a7.629,7.629,0,0,1,0,15.258Zm-5.97-7.629a5.969,5.969,0,1,0,5.97-5.969h0a5.969,5.969,0,0,0-5.968,5.969Z" transform="translate(-819.327 -400.547)"/>
    </g>
    <g id="vector-4-22" transform="translate(11.901 11.902)">
      <path id="Path_35" data-name="Path 35" d="M884.082,466.071a.761.761,0,0,1-.54-.223l-3.572-3.572a.763.763,0,0,1,1.079-1.079l3.573,3.572a.763.763,0,0,1-.54,1.3Z" transform="translate(-879.746 -460.972)"/>
    </g>
  </g>
</svg>
