<svg enable-background="new 0 0 512 512" viewBox="0 0 512 512" xmlns="http://www.w3.org/2000/svg"><g fill="#333"><path clip-rule="evenodd" d="m305.09 205.88c-48.16-7.25-95.87 12.14-125.41 49.54 5.21-53.02 49.9-94.19 104.01-94.19h34.61c8.05 0 14.65-6.38 14.92-14.42.52-15.3 1.34-30.6 2.46-45.88l.11-1.48c32.72 23.13 61.39 51.56 84.81 84.16l2.82 3.93-2.82 3.93c-23.42 32.6-52.09 61.04-84.81 84.17l-.11-1.48c-1.25-17.2-2.13-34.42-2.64-51.64-.21-7.22-5.56-13.25-12.7-14.33zm-156.92 105.68c-.16 6.85 4.35 12.93 10.96 14.75s13.6-1.09 16.97-7.06l17.96-31.84c21.3-37.76 63.71-58.45 106.58-52l2.97.45c.54 13.49 1.29 26.98 2.28 40.46l1.35 18.52c1.1 15.07 17.9 23.49 30.63 15.35 41.76-26.68 78.06-61.06 106.97-101.31l9.08-12.64c3.74-5.21 3.74-12.22 0-17.42l-9.08-12.64c-28.91-40.25-65.21-74.63-106.97-101.31-12.73-8.13-29.53.29-30.63 15.35l-1.35 18.53c-.79 10.86-1.44 21.74-1.94 32.61h-20.27c-72.95 0-132.58 58.21-134.34 131.15z" fill-rule="evenodd"/><path d="m394.84 358.55c2.35-20.07 4.01-40.21 4.97-60.36.1-2.18 1.09-4.23 2.73-5.67 7.23-6.39 14.24-13.02 21.01-19.89 2.55-2.59 7-.78 6.92 2.85-.62 28.9-2.61 57.79-5.98 86.55-4.71 40.26-37.05 71.82-77.1 76.3-69.01 7.71-140.34 7.71-209.35 0-40.05-4.48-72.39-36.03-77.1-76.3-8.25-70.56-8.25-141.84 0-212.39 4.71-40.26 37.05-71.82 77.1-76.29 45.61-5.1 92.23-6.82 138.53-5.19 3.9.14 6.58 3.95 6.09 7.82-.1.81-.18 1.62-.24 2.45l-1.02 14.01c-.23 3.22-2.98 5.66-6.2 5.55-44.73-1.57-89.79.11-133.84 5.03-26.48 2.96-47.69 23.86-50.76 50.09-7.98 68.25-7.98 137.2 0 205.46 3.07 26.23 24.28 47.13 50.76 50.09 66.81 7.47 135.92 7.47 202.72 0 26.48-2.98 47.69-23.88 50.76-50.11z"/></g></svg>