<svg height="800" viewBox="0 0 512 512" width="800" xmlns="http://www.w3.org/2000/svg"><path d="m213.931 239.454c-1.954-3.362-4.471-6.374-7.552-9.003-2.876-2.423-5.999-4.514-9.327-6.221l-8.465-4.284c-2.526-1.263-4.676-2.398-6.451-3.388-1.297-.725-2.321-1.451-3.021-2.133-.478-.461-.802-.939-.922-1.271-.154-.384-.324-1.101-.324-2.261 0-2.313 0-5.188 8.499-5.188 2.927 0 5.726.375 8.576 1.152 2.901.759 5.453 1.749 7.646 2.91l7.347 3.908 5.103-21.922-4.378-2.304c-3.226-1.698-6.997-3.089-11.273-4.139-8.448-2.022-17.826-2.048-25.378.077-4.002 1.135-7.501 2.876-10.453 5.188-3.072 2.415-5.504 5.478-7.177 9.071-1.698 3.576-2.551 7.637-2.551 12.1 0 4.139.853 7.876 2.475 11.051 1.476 2.953 3.499 5.666 6.076 8.098 2.347 2.202 5.077 4.173 8.098 5.837 2.697 1.51 5.547 2.953 8.951 4.565l6.4 3.063c1.724.853 3.226 1.783 4.446 2.816 1.024.853 1.852 1.783 2.372 2.697.401.734.597 1.766.597 3.021 0 2.534-.853 3.635-2.176 4.54-3.84 2.662-11.716 2.833-18.765 1.075-3.251-.802-6.221-1.809-8.875-3.046l-7.049-3.251-5.35 21.589 4.727 2.253c3.874 1.86 8.226 3.277 12.928 4.198 4.548.896 9.045 1.348 13.372 1.348 4.625 0 9.028-.623 13.15-1.877 4.198-1.289 7.953-3.174 11.076-5.572 3.302-2.492 5.973-5.572 7.979-9.224 1.997-3.763 3.021-7.962 3.021-12.51.001-4.848-1.125-9.226-3.352-12.963z"/><path d="m309.632 214.383c-2.022-5.922-5.026-11.213-8.951-15.684-3.9-4.523-8.849-8.175-14.703-10.871-11.725-5.35-27.972-5.299-39.603 0-5.854 2.688-10.803 6.34-14.729 10.846-3.925 4.497-6.929 9.788-8.926 15.684-1.997 5.803-3.004 11.964-3.004 18.338s.998 12.553 2.978 18.321c2.039 5.922 5.035 11.204 8.96 15.684 3.925 4.54 8.875 8.183 14.729 10.863 5.828 2.671 12.476 4.036 19.797 4.036 7.279 0 13.952-1.348 19.797-4.036s10.803-6.34 14.703-10.837c3.925-4.497 6.929-9.788 8.926-15.684 1.997-5.803 3.004-11.972 3.004-18.347s-.998-12.536-2.978-18.313zm-22.716 29.457c-.973 3.251-2.449 6.127-4.352 8.559-1.775 2.261-3.977 4.002-6.724 5.316-5.427 2.611-13.901 2.603-19.354 0-2.722-1.314-4.924-3.046-6.699-5.316-1.903-2.44-3.379-5.316-4.352-8.576-1.05-3.473-1.579-7.228-1.579-11.153s.529-7.654 1.579-11.136c.973-3.226 2.423-6.076 4.326-8.465 1.775-2.261 4.002-4.028 6.801-5.376 2.697-1.323 5.948-1.997 9.626-1.997s6.903.674 9.626 1.997c2.773 1.348 5.001 3.115 6.775 5.376 1.903 2.389 3.354 5.24 4.326 8.474 1.05 3.465 1.579 7.211 1.579 11.136s-.528 7.671-1.578 11.161z"/><path d="m342.409 258.091v-72.832h-24.15v94.865h58.402v-22.033z"/><path d="m460.664 213.7c-2.603-5.854-6.349-10.965-11.102-15.172-4.676-4.173-10.351-7.475-16.879-9.813-6.426-2.287-13.602-3.447-21.376-3.447h-29.201v94.865h29.201c7.774-.009 14.95-1.169 21.376-3.456 6.528-2.338 12.203-5.649 16.879-9.813 4.753-4.216 8.499-9.31 11.102-15.172 2.577-5.803 3.874-12.186 3.874-19.004 0-6.802-1.297-13.185-3.874-18.988zm-22.435 29.816c-1.451 3.123-3.396 5.692-5.897 7.799-2.628 2.21-5.623 3.874-9.173 5.052-3.652 1.229-7.646 1.835-11.853 1.835h-5.052v-51.029h5.052c4.198 0 8.201.614 11.853 1.835 3.55 1.178 6.554 2.842 9.148 5.035 2.526 2.125 4.446 4.685 5.922 7.834 1.451 3.123 2.176 6.75 2.176 10.803 0 4.12-.725 7.772-2.176 10.836z"/><path d="m512 64v-25.6h-448v-38.4h-25.6v38.4h-38.4v25.6h38.4v422.4h-25.6c-7.074 0-12.8 5.726-12.8 12.8s5.726 12.8 12.8 12.8h76.8c7.074 0 12.8-5.726 12.8-12.8s-5.726-12.8-12.8-12.8h-25.6v-422.4h89.591v38.4h-25.591c-14.14 0-25.6 11.46-25.6 25.6v204.8c0 14.14 11.46 25.6 25.6 25.6h358.4c14.14 0 25.6-11.46 25.6-25.6v-204.8c0-14.14-11.46-25.6-25.6-25.6h-25.6v-38.4zm-332.809 0h256.009v38.4h-256.009zm307.209 64v204.8h-358.4v-204.8z"/></svg>